<svg id="Component_21_1" data-name="Component 21 – 1" xmlns="http://www.w3.org/2000/svg" width="216.722" height="243.909" viewBox="0 0 216.722 243.909">
  <g id="Group_3024" data-name="Group 3024" transform="translate(115.198 7.667)">
    <g id="Group_3004" data-name="Group 3004" transform="translate(3.379 120.386)">
      <path id="Path_13823" data-name="Path 13823" d="M950.73,250.625l-22.02-2.932.172,2.187-18.827,2.507s-12.135,30.446-1.44,97.405h15.315l5.512-67.9H931.4l5.338,67.9h15.315C962.749,282.833,950.73,250.625,950.73,250.625Z" transform="translate(-904.209 -247.693)" fill="#8e716c"/>
      <line id="Line_3" data-name="Line 3" x2="15.978" transform="translate(18.232 34.203)" fill="none" stroke="#282828" stroke-linecap="round" stroke-linejoin="round" stroke-width="1.233"/>
    </g>
    <g id="Group_3013" data-name="Group 3013" transform="translate(0 61.266)">
      <g id="Group_3010" data-name="Group 3010" transform="translate(48.874 18.366)">
        <g id="Group_3006" data-name="Group 3006" transform="translate(0 8.598)">
          <g id="Group_3005" data-name="Group 3005">
            <path id="Path_13824" data-name="Path 13824" d="M993.511,197.359c-1.884-3.007-12.466-2.9-13.025-2.966-2.861-.335,1.834,22.43,7.786,42.329a6.682,6.682,0,0,0,9,4.248l.119-.051a6.69,6.69,0,0,0,3.967-7.4C998.532,218.5,995.69,200.836,993.511,197.359Z" transform="translate(-979.625 -194.389)" fill="#ffb1a5"/>
          </g>
          <path id="Path_13825" data-name="Path 13825" d="M997.105,209.895l-13.511,5.243-1.267-6.41,13.991-3.49Z" transform="translate(-980.697 -198.693)" fill="#f3978e"/>
          <path id="Path_13826" data-name="Path 13826" d="M1007.038,230.474s-6.4,8.6-6.1,8.2,5.02-13.891,5.02-13.891Z" transform="translate(-988.078 -206.448)" fill="#f3978e"/>
        </g>
        <g id="Group_3009" data-name="Group 3009" transform="translate(8.359)">
          <path id="Path_13827" data-name="Path 13827" d="M1013.234,215.064l-18.346,23.77a6.746,6.746,0,0,0,1.667,9.78h0a6.745,6.745,0,0,0,9.6-2.444L1021.429,218Z" transform="translate(-993.481 -193.993)" fill="#ffb1a5"/>
          <g id="Group_3007" data-name="Group 3007" transform="translate(19.257 11.041)">
            <path id="Path_13828" data-name="Path 13828" d="M1030.647,215.468a7.568,7.568,0,1,1,9.528-4.875A7.568,7.568,0,0,1,1030.647,215.468Z" transform="translate(-1025.403 -199.335)" fill="#ffb1a5"/>
            <path id="Path_13829" data-name="Path 13829" d="M1038.734,202.821s2.071-2.15-1.6-3.657-8.217-1.162-11.117,5.88Z" transform="translate(-1025.646 -198.438)" fill="#ffb1a5"/>
          </g>
          <g id="Group_3008" data-name="Group 3008" transform="translate(24.002)">
            <path id="Path_13830" data-name="Path 13830" d="M1045.9,180.758l7.682,3.33a.792.792,0,0,1,.348,1.132L1043.824,204.1a.966.966,0,0,1-1.2.461l-7.682-3.331a.792.792,0,0,1-.348-1.132l10.106-18.876A.965.965,0,0,1,1045.9,180.758Z" transform="translate(-1033.751 -180.356)" fill="#372f5f"/>
            <path id="Path_13831" data-name="Path 13831" d="M1044.684,180.2l7.682,3.331a.792.792,0,0,1,.347,1.131l-10.106,18.877a.966.966,0,0,1-1.2.461l-7.682-3.331a.791.791,0,0,1-.347-1.132l10.106-18.876A.965.965,0,0,1,1044.684,180.2Z" transform="translate(-1033.269 -180.136)" fill="#261b43"/>
            <path id="Path_13832" data-name="Path 13832" d="M1045.339,183.432l6.75,2.926-8.236,15.384-6.75-2.926Z" transform="translate(-1034.79 -181.444)" fill="#e6e6e6"/>
            <path id="Path_13833" data-name="Path 13833" d="M1052.089,186.359,1037.1,198.816l8.236-15.384Z" transform="translate(-1034.79 -181.444)" fill="#fff"/>
          </g>
          <path id="Path_13834" data-name="Path 13834" d="M1036.731,198.6a12.271,12.271,0,0,1,3.255,1.208,1.737,1.737,0,0,1,.84,1.929h0a1.726,1.726,0,0,1-1.459,1.3l-3.994.5s-2.084,3.592-4.806,3.995l2.5-6.305Z" transform="translate(-1008.195 -187.462)" fill="#ffb1a5"/>
        </g>
      </g>
      <g id="Group_3012" data-name="Group 3012">
        <g id="Group_3011" data-name="Group 3011">
          <path id="Path_13835" data-name="Path 13835" d="M933.376,149.692c-.441,0,28.321,3.98,33.066,36.772l-14.925,2.286-3.009,24.756H906.874l-8.266-45.739a51.946,51.946,0,0,1,26.352-18.075Z" transform="translate(-898.608 -149.692)" fill="#56dfed"/>
          <line id="Line_4" data-name="Line 4" y1="14.318" x2="1.295" transform="translate(52.91 24.741)" fill="none" stroke="#282828" stroke-linecap="round" stroke-linejoin="round" stroke-width="1.233"/>
        </g>
      </g>
    </g>
    <g id="Group_3023" data-name="Group 3023" transform="translate(12.964)">
      <path id="Path_13836" data-name="Path 13836" d="M949.635,142.979v-11.39H936.288v11.523a26.006,26.006,0,0,0-3.586,1.454l10.41,6.2,10.643-6.2A17.364,17.364,0,0,0,949.635,142.979Z" transform="translate(-925.098 -81.244)" fill="#ffb1a5"/>
      <path id="Path_13837" data-name="Path 13837" d="M938.441,131.586s2.4,6.365,8.8,5.816c5.882-.506,4.946-9.326,4.946-9.326Z" transform="translate(-927.375 -79.85)" fill="#282828"/>
      <g id="Group_3016" data-name="Group 3016" transform="translate(0 35.276)">
        <path id="Path_13838" data-name="Path 13838" d="M925.342,114.605c-2.092,1.9-6.77-5.3-4.749-7.321s3.563,1.15,3.563,1.15l.9,2.148.68,2.91.162.762Z" transform="translate(-920.097 -106.61)" fill="#f3978e"/>
        <g id="Group_3015" data-name="Group 3015" transform="translate(1.473 3.118)">
          <g id="Group_3014" data-name="Group 3014">
            <path id="Path_13839" data-name="Path 13839" d="M922.539,111.884s1.584-.712,2.99,1.584" transform="translate(-922.539 -111.78)" fill="none" stroke="#282828" stroke-linecap="round" stroke-linejoin="round" stroke-width="0.993"/>
          </g>
        </g>
      </g>
      <g id="Group_3019" data-name="Group 3019" transform="translate(29.458 35.367)">
        <path id="Path_13840" data-name="Path 13840" d="M969.457,114.447c1.924,2.067,7.194-4.709,5.351-6.893s-3.648.844-3.648.844l-1.08,2.065-.925,2.842-.226.746Z" transform="translate(-968.929 -106.762)" fill="#f3978e"/>
        <g id="Group_3018" data-name="Group 3018" transform="translate(1.576 3.088)">
          <g id="Group_3017" data-name="Group 3017">
            <path id="Path_13841" data-name="Path 13841" d="M974.656,112.042s-1.518-.843-3.114,1.325" transform="translate(-971.542 -111.88)" fill="none" stroke="#282828" stroke-linecap="round" stroke-linejoin="round" stroke-width="0.993"/>
          </g>
        </g>
      </g>
      <g id="Group_3020" data-name="Group 3020" transform="translate(1.575 13.074)">
        <path id="Path_13842" data-name="Path 13842" d="M922.708,85.816c0,9.528,7.264,14.046,16.226,14.046s16.225-4.518,16.225-14.046-7.264-16.01-16.225-16.01S922.708,76.288,922.708,85.816Z" transform="translate(-922.708 -69.806)" fill="#282828"/>
      </g>
      <path id="Path_13843" data-name="Path 13843" d="M926.357,87.919a65.125,65.125,0,0,0,1.652,14.479c.808,3.507,3.08,5.958,6.292,7.932l.585.359a11.044,11.044,0,0,0,11.24.125h0c3.479-2.029,5.917-4.7,6.666-8.467a95.234,95.234,0,0,0,1.513-14.427s1.3-14.766-13.774-14.479S926.357,87.919,926.357,87.919Z" transform="translate(-922.577 -58.173)" fill="#ffb1a5"/>
      <g id="Group_3022" data-name="Group 3022" transform="translate(3.469 28.644)">
        <path id="Path_13844" data-name="Path 13844" d="M948.012,111.412v2.043a.928.928,0,0,0,.066.343.911.911,0,0,0,1.085.5l.938-.249" transform="translate(-934.641 -101.884)" fill="none" stroke="#282828" stroke-linecap="round" stroke-linejoin="round" stroke-width="1.232"/>
        <path id="Path_13845" data-name="Path 13845" d="M939.113,97.605l-7.49,1.755s.34-1.906,3.4-2.6S939.113,97.605,939.113,97.605Z" transform="translate(-928.139 -96)" fill="#282828"/>
        <path id="Path_13846" data-name="Path 13846" d="M955.06,97.605l7.233,1.755s-.329-1.906-3.288-2.6S955.06,97.605,955.06,97.605Z" transform="translate(-937.437 -96)" fill="#282828"/>
        <ellipse id="Ellipse_8" data-name="Ellipse 8" cx="1.263" cy="1.26" rx="1.263" ry="1.26" transform="translate(6.865 5.848)" fill="#282828"/>
        <path id="Path_13847" data-name="Path 13847" d="M959.606,106.571a1.263,1.263,0,1,1-1.263-1.26A1.261,1.261,0,0,1,959.606,106.571Z" transform="translate(-938.239 -99.463)" fill="#282828"/>
        <path id="Path_13848" data-name="Path 13848" d="M941.416,120.143h9.741S946.84,125.4,941.416,120.143Z" transform="translate(-932.024 -105.348)" fill="#fff"/>
        <g id="Group_3021" data-name="Group 3021">
          <circle id="Ellipse_9" data-name="Ellipse 9" cx="5.372" cy="5.372" r="5.372" transform="translate(0 7.597) rotate(-45)" fill="none" stroke="#c98bd2" stroke-width="1.342"/>
          <circle id="Ellipse_10" data-name="Ellipse 10" cx="5.372" cy="5.372" r="5.372" transform="translate(13.197 7.597) rotate(-45)" fill="none" stroke="#c98bd2" stroke-width="1.342"/>
          <path id="Path_13849" data-name="Path 13849" d="M947.346,107.864a1.748,1.748,0,0,1,2.453,0" transform="translate(-934.377 -100.267)" fill="none" stroke="#c98bd2" stroke-width="1.342"/>
          <line id="Line_5" data-name="Line 5" x1="1.692" y1="0.043" transform="translate(0.533 7.554)" fill="none" stroke="#c98bd2" stroke-width="1.342"/>
          <line id="Line_6" data-name="Line 6" y1="0.043" x2="1.702" transform="translate(26.166 7.554)" fill="none" stroke="#c98bd2" stroke-width="1.342"/>
        </g>
      </g>
      <path id="Path_13850" data-name="Path 13850" d="M969.185,94.773s-6.026-8.146-4.636-16.4a11.873,11.873,0,0,1,5.637,8.061C971.351,92.243,969.185,94.773,969.185,94.773Z" transform="translate(-937.651 -60.131)" fill="#282828"/>
      <path id="Path_13851" data-name="Path 13851" d="M925.8,94.96s7-9.252,5.61-17.505a13.781,13.781,0,0,0-6.02,8.615C924.221,91.879,925.8,94.96,925.8,94.96Z" transform="translate(-922.025 -59.767)" fill="#282828"/>
      <path id="Path_13852" data-name="Path 13852" d="M952.521,79.271s-7.738,8.471-28.908,7.021c0,0,3.242-12.431,13.5-13.754C937.115,72.538,948.961,71.124,952.521,79.271Z" transform="translate(-921.492 -57.779)" fill="#282828"/>
      <circle id="Ellipse_11" data-name="Ellipse 11" cx="10.108" cy="10.108" r="10.108" transform="translate(18.896 19.958) rotate(-80.831)" fill="#282828"/>
    </g>
  </g>
  <g id="Group_3038" data-name="Group 3038" transform="translate(46.198 18.955)">
    <path id="Path_13853" data-name="Path 13853" d="M735.553,249.428l-18.827-2.507.172-2.187-22.02,2.932s-12.018,32.207-1.323,99.167H708.87l5.338-67.9h1.958l5.512,67.9h15.315C747.688,279.874,735.553,249.428,735.553,249.428Z" transform="translate(-674.497 -137.422)" fill="#282828"/>
    <g id="Group_3033" data-name="Group 3033" transform="translate(10.948)">
      <path id="Path_13854" data-name="Path 13854" d="M731.632,88a34.706,34.706,0,0,1-6.322-11.4c-1.861-5.268-7.956-3.127-7.956-3.127s-5.079-6.533-12.722-4.258-10.3,7.714-10.454,14.18-5.242,7.477-9.158,14.957c-6.913,13.205,4.727,24.328,25.915,21.242l.029-.206a22.219,22.219,0,0,0,7.765.725C744.185,118.6,741.728,99.877,731.632,88Z" transform="translate(-683.026 -67.595)" fill="#282828"/>
      <g id="Group_3027" data-name="Group 3027" transform="translate(39.713 22.203)">
        <path id="Path_13855" data-name="Path 13855" d="M749.416,111.646c2.092,1.9,6.77-5.3,4.749-7.321s-3.564,1.149-3.564,1.149l-.9,2.149-.68,2.91-.162.763Z" transform="translate(-748.856 -103.652)" fill="#f3978e"/>
        <g id="Group_3026" data-name="Group 3026" transform="translate(1.342 3.119)">
          <g id="Group_3025" data-name="Group 3025">
            <path id="Path_13856" data-name="Path 13856" d="M754.07,108.926s-1.583-.712-2.99,1.584" transform="translate(-751.08 -108.822)" fill="none" stroke="#282828" stroke-linecap="round" stroke-linejoin="round" stroke-width="0.993"/>
          </g>
        </g>
      </g>
      <g id="Group_3030" data-name="Group 3030" transform="translate(9.795 22.294)">
        <path id="Path_13857" data-name="Path 13857" d="M705,111.488c-1.924,2.068-7.194-4.708-5.351-6.893s3.648.844,3.648.844l1.08,2.064.925,2.842.226.746Z" transform="translate(-699.263 -103.804)" fill="#f3978e"/>
        <g id="Group_3029" data-name="Group 3029" transform="translate(1.574 3.088)">
          <g id="Group_3028" data-name="Group 3028">
            <path id="Path_13858" data-name="Path 13858" d="M701.872,109.084s1.518-.844,3.114,1.325" transform="translate(-701.872 -108.922)" fill="none" stroke="#282828" stroke-linecap="round" stroke-linejoin="round" stroke-width="0.993"/>
          </g>
        </g>
      </g>
      <g id="Group_3031" data-name="Group 3031" transform="translate(11.492)">
        <path id="Path_13859" data-name="Path 13859" d="M734.526,82.857c0,9.528-7.264,14.046-16.225,14.046s-16.225-4.518-16.225-14.046,7.264-16.01,16.225-16.01S734.526,73.329,734.526,82.857Z" transform="translate(-702.075 -66.847)" fill="#282828"/>
      </g>
      <rect id="Rectangle_625" data-name="Rectangle 625" width="13.348" height="17.284" transform="translate(20.98 37.271)" fill="#ffb1a5"/>
      <path id="Path_13860" data-name="Path 13860" d="M714.575,126.843s3.716,7.416,8.286,8.573a6.433,6.433,0,0,0,3.7-.214c1.721-.61,3.9-3.175,4.273-6.013l.172-1.621S722.876,132,714.575,126.843Z" transform="translate(-695.542 -90.65)" fill="#282828"/>
      <path id="Path_13861" data-name="Path 13861" d="M733.813,84.96a65.14,65.14,0,0,1-1.652,14.479c-.808,3.507-3.08,5.958-6.292,7.931l-.585.36a11.042,11.042,0,0,1-11.24.124h0c-3.48-2.029-5.917-4.7-6.667-8.467a95.259,95.259,0,0,1-1.512-14.427s-1.3-14.765,13.774-14.479S733.813,84.96,733.813,84.96Z" transform="translate(-692.076 -68.287)" fill="#ffb1a5"/>
      <g id="Group_3032" data-name="Group 3032" transform="translate(17.519 16.79)">
        <path id="Path_13862" data-name="Path 13862" d="M727.3,109.78v1.214a.923.923,0,0,0,.066.342.912.912,0,0,0,1.085.5l.937-.248" transform="translate(-718.111 -100.67)" fill="none" stroke="#282828" stroke-linecap="round" stroke-linejoin="round" stroke-width="1.23"/>
        <path id="Path_13863" data-name="Path 13863" d="M732.508,95.784l8.019,1.9s-.364-2.061-3.645-2.809S732.508,95.784,732.508,95.784Z" transform="translate(-720.176 -94.679)" fill="#282828"/>
        <path id="Path_13864" data-name="Path 13864" d="M720.188,95.784l-8.122,1.9s.369-2.061,3.691-2.809S720.188,95.784,720.188,95.784Z" transform="translate(-712.066 -94.679)" fill="#282828"/>
        <path id="Path_13865" data-name="Path 13865" d="M719.044,103.936a1.263,1.263,0,1,1-1.263-1.256A1.259,1.259,0,0,1,719.044,103.936Z" transform="translate(-713.832 -97.853)" fill="#282828"/>
        <path id="Path_13866" data-name="Path 13866" d="M738.9,103.936a1.263,1.263,0,1,1-1.263-1.256A1.259,1.259,0,0,1,738.9,103.936Z" transform="translate(-721.708 -97.853)" fill="#282828"/>
        <path id="Path_13867" data-name="Path 13867" d="M719.323,116.67H730.41s-.782,3.046-5.81,3.046A5.881,5.881,0,0,1,719.323,116.67Z" transform="translate(-714.945 -103.403)" fill="#fff"/>
      </g>
      <path id="Path_13868" data-name="Path 13868" d="M705.32,91.815s6.026-8.146,4.636-16.4a11.873,11.873,0,0,0-5.638,8.06C703.154,89.285,705.32,91.815,705.32,91.815Z" transform="translate(-691.337 -70.246)" fill="#282828"/>
      <path id="Path_13869" data-name="Path 13869" d="M748.419,91.179s-7-8.429-5.61-16.683a13.783,13.783,0,0,1,6.02,8.615C749.994,88.921,748.419,91.179,748.419,91.179Z" transform="translate(-706.672 -69.882)" fill="#282828"/>
      <path id="Path_13870" data-name="Path 13870" d="M707.043,76.313s6.915,9.294,28.085,7.844c0,0-2.418-13.254-12.678-14.578C722.45,69.579,710.6,68.165,707.043,76.313Z" transform="translate(-692.554 -67.894)" fill="#282828"/>
    </g>
    <g id="Group_3037" data-name="Group 3037" transform="translate(0 48.924)">
      <g id="Group_3035" data-name="Group 3035" transform="translate(0 27.133)">
        <g id="Group_3034" data-name="Group 3034">
          <path id="Path_13871" data-name="Path 13871" d="M671.243,269.755c-.308.484,17.62-78,12.3-76.818-.486.108-9.808.974-11.193,3.791-4.016,8.166-6.9,72.431-6.9,72.431Z" transform="translate(-665.105 -192.924)" fill="#ffb1a5"/>
          <path id="Path_13872" data-name="Path 13872" d="M665.224,318.225s-2.89,13.407,8.034,14.873a1.536,1.536,0,0,0,1.652-1.015l.031-.091a1.534,1.534,0,0,0-.85-1.9c-1.781-.8-4.543-2.808-3.173-7.377,0,0,1.579-.194,2.45,2.751a1.267,1.267,0,0,0,1.78.783h0a1.267,1.267,0,0,0,.685-1.3c-.262-2.063-1.3-7.029-5.282-8.362Z" transform="translate(-664.878 -241.989)" fill="#ffb1a5"/>
        </g>
        <path id="Path_13873" data-name="Path 13873" d="M671.545,222.871s10.33,14.547,10.384,14.266,3.612-20.424,3.612-20.424l-12.534-5.429Z" transform="translate(-667.523 -200.208)" fill="#f3978e"/>
      </g>
      <g id="Group_3036" data-name="Group 3036" transform="translate(2.448)">
        <path id="Path_13874" data-name="Path 13874" d="M699.211,152.428c.441,0-25.529.463-30.275,33.254l14.925,2.287,3.009,24.755H728.5l8.266-45.738s-5.876-9.91-23-14.765Z" transform="translate(-668.936 -149.643)" fill="#00857b"/>
        <path id="Path_13875" data-name="Path 13875" d="M698.08,154.7s3.67,4.873,18.708,4.873c14.9,0,18.707-5.128,18.707-5.128a64.233,64.233,0,0,0-18.973-6.494A67.535,67.535,0,0,0,698.08,154.7Z" transform="translate(-680.499 -147.947)" fill="#ffb1a5"/>
      </g>
    </g>
  </g>
  <g id="Group_3061" data-name="Group 3061">
    <g id="Group_3040" data-name="Group 3040" transform="translate(85.323 178.512)">
      <g id="Group_3039" data-name="Group 3039">
        <path id="Path_13876" data-name="Path 13876" d="M782.778,331.338l.036,65.4h32.352l2.486-65.4Z" transform="translate(-782.778 -331.338)" fill="#005683"/>
        <path id="Path_13877" data-name="Path 13877" d="M876.284,331.338l-.036,65.4H843.9l-2.486-65.4Z" transform="translate(-806.04 -331.338)" fill="#005683"/>
        <rect id="Rectangle_626" data-name="Rectangle 626" width="33.45" height="22.72" transform="translate(19.125)" fill="#005683"/>
      </g>
      <line id="Line_7" data-name="Line 7" x2="23.072" transform="translate(23.797 22.72)" fill="none" stroke="#282828" stroke-linecap="round" stroke-linejoin="round" stroke-width="1.397"/>
    </g>
    <g id="Group_3051" data-name="Group 3051" transform="translate(0 61.473)">
      <g id="Group_3042" data-name="Group 3042" transform="translate(137.493 8.949)">
        <g id="Group_3041" data-name="Group 3041" transform="translate(16.801 51.02)">
          <path id="Path_13878" data-name="Path 13878" d="M918.82,236.734c2.006,22.16-.11,38.306.475,79.082l-19.31.809L897.109,240.3Z" transform="translate(-897.109 -236.734)" fill="#ffb1a5"/>
          <path id="Path_13879" data-name="Path 13879" d="M901.052,258.011s11.958-1.094,20.133-6.487l-.215-4.746-19.924,2.714Z" transform="translate(-898.671 -240.719)" fill="#f3978e"/>
        </g>
        <path id="Path_13880" data-name="Path 13880" d="M869.258,152.16s37.981,9.551,44.863,57.76c0,0-18.589,8.059-37.217,4.593l4.191-16.125Z" transform="translate(-869.258 -152.16)" fill="#c98bd2"/>
      </g>
      <g id="Group_3049" data-name="Group 3049">
        <g id="Group_3046" data-name="Group 3046">
          <path id="Path_13881" data-name="Path 13881" d="M673.616,185.388l28.28,33.4-8.654,24.37s-21.494-29.884-31.152-52.982Z" transform="translate(-649.573 -156.394)" fill="#ffb1a5"/>
          <g id="Group_3045" data-name="Group 3045">
            <g id="Group_3044" data-name="Group 3044">
              <g id="Group_3043" data-name="Group 3043">
                <path id="Path_13882" data-name="Path 13882" d="M669.244,174.442s-9.93,5.611-12.456,3.581c-4.414-3.547-8.061-16.529-8.061-16.529s18.57-7,18.4-6.727S669.244,174.442,669.244,174.442Z" transform="translate(-644.272 -144.243)" fill="#ffb1a5"/>
                <path id="Path_13883" data-name="Path 13883" d="M680.527,175.466c-.176-1,3.682-11.785,5.005-15.829a1.783,1.783,0,0,0-1.412-2.247h0a2.06,2.06,0,0,0-2.3.941l-4.658,7.961Z" transform="translate(-655.554 -145.267)" fill="#ffb1a5"/>
                <path id="Path_13884" data-name="Path 13884" d="M677.609,156.531l-3.2-15.91a2,2,0,0,0-2.315-1.588h0a1.724,1.724,0,0,0-1.416,1.913l1.393,11.847Z" transform="translate(-652.977 -137.99)" fill="#ffb1a5"/>
                <path id="Path_13885" data-name="Path 13885" d="M666.377,150l-4.343-11.361a1.993,1.993,0,0,0-2.467-1.214h0a1.717,1.717,0,0,0-1.135,2.038l3.223,13.128Z" transform="translate(-648.104 -137.326)" fill="#ffb1a5"/>
                <path id="Path_13886" data-name="Path 13886" d="M657.7,155.73,652.2,144.567a2.184,2.184,0,0,0-2.789-1.069h0a1.9,1.9,0,0,0-.982,2.513l4.38,10.539Z" transform="translate(-644.093 -139.708)" fill="#ffb1a5"/>
                <path id="Path_13887" data-name="Path 13887" d="M645.8,159.971l-4.312-6.839a1.545,1.545,0,0,1,.753-2.064h0a1.766,1.766,0,0,1,2.155.627l5.669,7.866Z" transform="translate(-641.342 -142.72)" fill="#ffb1a5"/>
              </g>
            </g>
            <path id="Path_13888" data-name="Path 13888" d="M676.038,166.071s-6.475-.68-7.14,7.949" transform="translate(-652.274 -148.725)" fill="none" stroke="#282828" stroke-linecap="round" stroke-linejoin="round" stroke-width="1.532"/>
          </g>
        </g>
        <g id="Group_3048" data-name="Group 3048" transform="translate(37.934 8.113)">
          <g id="Group_3047" data-name="Group 3047" transform="translate(0 19.473)">
            <path id="Path_13889" data-name="Path 13889" d="M704.223,230.831s5.319,18.407,15.918,15.96,27.118-25.084,27.118-25.084l-3.7-38.654-29.749,36.614Z" transform="translate(-704.223 -183.053)" fill="#ffb1a5"/>
            <path id="Path_13890" data-name="Path 13890" d="M735.415,222.709s10.044,15.15,18.612,20.492l5.607-7.079L738,219.387Z" transform="translate(-716.598 -197.468)" fill="#f3978e"/>
          </g>
          <path id="Path_13891" data-name="Path 13891" d="M778.53,150.774s-29.487,6.647-45.2,40.917c0,0,9.494,14.306,24.715,20.664l10.19-12.484Z" transform="translate(-715.771 -150.774)" fill="#c98bd2"/>
        </g>
      </g>
      <g id="Group_3050" data-name="Group 3050" transform="translate(81.48 5.447)">
        <path id="Path_13892" data-name="Path 13892" d="M795.919,148.915a73.845,73.845,0,0,0-18.76,13.744l2.273,100.177H852.02l-.235-99.66s-9.15-8.954-19.066-13.319C824.3,146.149,804.108,144.715,795.919,148.915Z" transform="translate(-776.706 -146.355)" fill="#c98bd2"/>
        <path id="Rectangle_627" data-name="Rectangle 627" d="M0,0H20.193a0,0,0,0,1,0,0V10.1a10.1,10.1,0,0,1-10.1,10.1h0A10.1,10.1,0,0,1,0,10.1V0A0,0,0,0,1,0,0Z" transform="translate(43.465 31.181)" fill="none" stroke="#282828" stroke-linecap="round" stroke-linejoin="round" stroke-width="1.397"/>
        <line id="Line_8" data-name="Line 8" y1="32.771" x2="0.942" transform="translate(75.196 33.456)" fill="none" stroke="#282828" stroke-linecap="round" stroke-linejoin="round" stroke-width="1.397"/>
        <line id="Line_9" data-name="Line 9" x1="1.568" y1="28.407" transform="translate(0 32.358)" fill="none" stroke="#282828" stroke-linecap="round" stroke-linejoin="round" stroke-width="1.397"/>
      </g>
    </g>
    <g id="Group_3060" data-name="Group 3060" transform="translate(94.965)">
      <path id="Path_13893" data-name="Path 13893" d="M807.451,72.539,804.425,57.57a10.521,10.521,0,0,1-.064-4.869c.959-2.925,4.481-8.543,10.5-5.971l1.3,5.927s-6.252,1.261-8.76,9.44Z" transform="translate(-800.872 -39.65)" fill="#282828"/>
      <path id="Path_13894" data-name="Path 13894" d="M815.291,52.284c-.109,1.967-1.845,10.573-7.949,13.708C807.341,65.992,802,54.528,815.291,52.284Z" transform="translate(-801.744 -42.114)" fill="#282828"/>
      <path id="Path_13895" data-name="Path 13895" d="M836.711,129.312h0V103.893H813.278v25.419l-6.975,3.18s1.636,10.535,18.938,10.769,19.04-10.251,19.04-10.251Z" transform="translate(-801.753 -62.589)" fill="#ffb1a5"/>
      <path id="Path_13896" data-name="Path 13896" d="M821.952,42.505s4.3-11.345,17.562-5.314c8.026,3.65,10.275,8.545,11.232,12.013a13.946,13.946,0,0,1,.358,4.045L847.9,68.315,835.372,47.471l-12.118.962Z" transform="translate(-807.962 -35.425)" fill="#282828"/>
      <g id="Group_3054" data-name="Group 3054" transform="translate(38.543 31.271)">
        <path id="Path_13897" data-name="Path 13897" d="M864.043,88.881a3.9,3.9,0,0,1,4.838-1.276c3.258,1.235,1.784,9.149-3.1,10.158a3.868,3.868,0,0,1-3.126-.817S863.854,91.1,864.043,88.881Z" transform="translate(-862.652 -87.262)" fill="#f3978e"/>
        <g id="Group_3053" data-name="Group 3053" transform="translate(0.916 3.045)">
          <g id="Group_3052" data-name="Group 3052">
            <path id="Path_13898" data-name="Path 13898" d="M868.838,92.4s-2.73-.911-4.667,3.108" transform="translate(-864.171 -92.31)" fill="none" stroke="#282828" stroke-linecap="round" stroke-linejoin="round" stroke-width="1.397"/>
          </g>
        </g>
      </g>
      <g id="Group_3057" data-name="Group 3057" transform="translate(0 31.271)">
        <path id="Path_13899" data-name="Path 13899" d="M805.34,88.881A3.9,3.9,0,0,0,800.5,87.6c-3.259,1.235-1.784,9.149,3.1,10.158a3.869,3.869,0,0,0,3.126-.817S805.529,91.1,805.34,88.881Z" transform="translate(-798.761 -87.262)" fill="#f3978e"/>
        <g id="Group_3056" data-name="Group 3056" transform="translate(2.387 3.045)">
          <g id="Group_3055" data-name="Group 3055">
            <path id="Path_13900" data-name="Path 13900" d="M802.718,92.4s2.73-.911,4.667,3.108" transform="translate(-802.718 -92.31)" fill="none" stroke="#282828" stroke-linecap="round" stroke-linejoin="round" stroke-width="1.397"/>
          </g>
        </g>
      </g>
      <path id="Path_13901" data-name="Path 13901" d="M843.1,66.348c0,4.771-.467,14.751-3.4,20.674-2.754,5.562-7.308,8.555-13.279,8.733S816,93.633,812.44,86.415s-3.395-19.978-3.395-19.978,0-17.042,16.843-17.042C843.628,49.395,843.1,66.348,843.1,66.348Z" transform="translate(-802.841 -40.968)" fill="#ffb1a5"/>
      <path id="Path_13902" data-name="Path 13902" d="M818.158,116.659s1.962,9.957,10.628,11.1c9.973,1.316,12.629-10.848,12.629-10.848s-4.407,5.522-11.376,5.53A15.249,15.249,0,0,1,818.158,116.659Z" transform="translate(-806.457 -67.654)" fill="#282828"/>
      <g id="Group_3059" data-name="Group 3059" transform="translate(6.411 21.393)">
        <path id="Path_13903" data-name="Path 13903" d="M835.281,89.226V93.17a1.289,1.289,0,0,0,.092.48,1.269,1.269,0,0,0,1.514.7l1.308-.347" transform="translate(-819.661 -78.163)" fill="none" stroke="#282828" stroke-linecap="round" stroke-linejoin="round" stroke-width="1.397"/>
        <path id="Path_13904" data-name="Path 13904" d="M825.019,85.1a1.533,1.533,0,1,1-1.533-1.533A1.533,1.533,0,0,1,825.019,85.1Z" transform="translate(-814.373 -75.916)" fill="#282828"/>
        <path id="Path_13905" data-name="Path 13905" d="M848.848,85.1a1.533,1.533,0,1,1-1.533-1.533A1.533,1.533,0,0,1,848.848,85.1Z" transform="translate(-823.827 -75.916)" fill="#282828"/>
        <path id="Path_13906" data-name="Path 13906" d="M841.818,72.438,852.127,75.1s-.469-2.891-4.686-3.942S841.818,72.438,841.818,72.438Z" transform="translate(-822.255 -70.887)" fill="#282828"/>
        <path id="Path_13907" data-name="Path 13907" d="M824.419,72.438,814.11,75.1s.469-2.891,4.686-3.942S824.419,72.438,824.419,72.438Z" transform="translate(-811.262 -70.887)" fill="#282828"/>
        <path id="Path_13908" data-name="Path 13908" d="M827.8,102.351s1.521,1.165,5.52,1.165a13.979,13.979,0,0,0,5.908-1.165" transform="translate(-816.693 -83.37)" fill="none" stroke="#282828" stroke-linecap="round" stroke-linejoin="round" stroke-width="1.397"/>
        <g id="Group_3058" data-name="Group 3058" transform="translate(0 3.112)">
          <circle id="Ellipse_12" data-name="Ellipse 12" cx="6.515" cy="6.515" r="6.515" transform="translate(2.185)" fill="none" stroke="#fff" stroke-width="1.951"/>
          <circle id="Ellipse_13" data-name="Ellipse 13" cx="6.515" cy="6.515" r="6.515" transform="translate(18.19)" fill="none" stroke="#fff" stroke-width="1.951"/>
          <path id="Path_13909" data-name="Path 13909" d="M834.61,86.425a2.121,2.121,0,0,1,2.975,0" transform="translate(-819.395 -79.91)" fill="none" stroke="#fff" stroke-width="1.951"/>
          <line id="Line_10" data-name="Line 10" x1="2.185" y1="0.055" transform="translate(0 6.46)" fill="none" stroke="#fff" stroke-width="1.951"/>
          <line id="Line_11" data-name="Line 11" y1="0.04" x2="2.439" transform="translate(31.221 6.476)" fill="none" stroke="#fff" stroke-width="1.951"/>
        </g>
      </g>
      <path id="Path_13910" data-name="Path 13910" d="M818.158,50.444s3.129,8.889,17.248,8.616c9.594-.185,11.886,6.757,11.886,6.757s-1.67-15.52-2.108-15.373-14.6-3.778-14.6-3.778Z" transform="translate(-806.457 -39.885)" fill="#282828"/>
    </g>
  </g>
</svg>
