<svg id="Dalua_Logo" data-name="Dalua Logo" xmlns="http://www.w3.org/2000/svg" width="620" height="620" viewBox="0 0 620 620">
  <g id="Group_1826" data-name="Group 1826" transform="translate(77.849 274.043)">
    <path id="Path_1767" data-name="Path 1767" d="M879.351,142.972h28.386L893.6,106.221Z" transform="translate(-759.416 -97.703)" fill="#fff"/>
    <path id="Path_1768" data-name="Path 1768" d="M806.108,98.835H775.353v70.943h30.755q15.482,0,23.763-10.257c4.821-6.2,7.234-14.609,7.234-25.115q0-15.787-7.234-25.318C824.344,102.214,816.429,98.835,806.108,98.835Z" transform="translate(-775.353 -98.835)" fill="#fff"/>
  </g>
  <path id="Path_1769" data-name="Path 1769" d="M1177.306,136.992l-11.84-30.749-14.247,36.726-3.392,8.683A136.825,136.825,0,0,0,1177.306,136.992Z" transform="translate(-647.423 176.393)" fill="#fff"/>
  <path id="Path_1770" data-name="Path 1770" d="M1017.653-141.821c-171.078,0-309.8,138.731-309.8,309.854s138.727,309.831,309.8,309.831c171.1,0,309.831-138.695,309.831-309.831S1188.757-141.821,1017.653-141.821ZM815.24,221.987H764.491V113.4H815.24c15.753,0,28.308,5.132,37.634,15.5,8.895,9.873,13.341,22.806,13.341,38.891,0,15.922-4.446,28.873-13.341,38.677Q838.885,222,815.24,221.987Zm133.676,0-10.005-25.52H895.981l-9.955,25.52H864.557l41.8-108.585h22.185l41.837,108.585Zm112.472,0H979.98V113.4h20.364v89.364h61.044Zm53.036,0c-15.873,0-28.391-5.162-37.435-15.522-8.906-9.8-13.341-22.755-13.341-38.677V113.4H1084v54.386c0,10.57,2.355,18.8,7.11,24.847q8.225,10.118,23.309,10.13c10.206,0,17.994-3.385,23.446-10.13,4.8-6.143,7.173-14.5,7.173-24.847V113.4h20.363v54.386c0,15.922-4.478,28.873-13.372,38.677Q1138.051,222,1114.424,221.987Zm143.988,0-10.018-25.52-4.917-11.173c-7.538,6.093-15.087,11.111-23.176,13.359a49.966,49.966,0,0,1-16.349,1.7l-8.429,21.638h-21.443l10.007-26.016a83.021,83.021,0,0,1-19.585-10.539,51.66,51.66,0,0,0,21.845,4.654l29.514-76.683h22.2L1256,159.987c34.7-21.242,52.841-13.309,52.841-13.309-19.388.861-34.6,12.254-48.614,24.282l19.653,51.027Z" transform="translate(-707.849 141.821)" fill="#fff"/>
</svg>
