<svg xmlns="http://www.w3.org/2000/svg" width="132" height="132" viewBox="0 0 132 132">
  <g id="Group_1835" data-name="Group 1835" transform="translate(-707.849 141.821)">
    <g id="Group_1834" data-name="Group 1834" transform="translate(724.197 -83.54)">
      <path id="Path_1775" data-name="Path 1775" d="M879.817,114.152h5l-2-8Z" transform="translate(-854.165 -104.433)" fill="#fff"/>
      <path id="Path_1776" data-name="Path 1776" d="M782.005,98.554h-7v15h7a5.969,5.969,0,0,0,5-2c1.012-1.3,1-2.794,1-5s.012-4.668-1-6C785.845,99.111,784.173,98.554,782.005,98.554Z" transform="translate(-775.353 -98.835)" fill="#fff"/>
    </g>
    <path id="Path_1777" data-name="Path 1777" d="M1154.275,113.168l-3-7-3,8v2A27.129,27.129,0,0,0,1154.275,113.168Z" transform="translate(-333.426 -187.989)" fill="#fff"/>
    <path id="Path_1778" data-name="Path 1778" d="M773.849-141.821a66.148,66.148,0,0,0-66,66,66.146,66.146,0,0,0,66,66,66.142,66.142,0,0,0,66-66A66.144,66.144,0,0,0,773.849-141.821Zm-43,77h-11v-23h11c3.345,0,6.019.8,8,3a13.96,13.96,0,0,1,3,9,11.33,11.33,0,0,1-3,8C736.868-65.621,734.194-64.821,730.849-64.821Zm28,0-2-5h-9l-2,5h-5l9-23h5l9,23Zm24,0h-17v-23h4v19h13Zm11,0c-3.371,0-6.079-.8-8-3-1.891-2.082-2-4.619-2-8v-12h4v12c0,2.245-.01,3.717,1,5a6.021,6.021,0,0,0,5,2,5.973,5.973,0,0,0,5-2,7.769,7.769,0,0,0,2-5v-12h4v12a11.331,11.331,0,0,1-3,8C799.87-65.621,797.192-64.821,793.849-64.821Zm31,0-2-5-1-3a15.026,15.026,0,0,1-5,3c-1.181.331-2.88,1.063-4,1l-1,4h-5l2-5a9.809,9.809,0,0,1-4-3,12.777,12.777,0,0,0,5,1l6-16h5l3,10c7.368-4.511,12-3,12-3-4.117.183-8.024,2.446-11,5l4,11Z" fill="#fff"/>
  </g>
</svg>
