<svg xmlns="http://www.w3.org/2000/svg" width="46.235" height="50.303" viewBox="0 0 46.235 50.303">
  <g id="light-bulb" transform="translate(-20.702 0)">
    <g id="Group_1792" data-name="Group 1792" transform="translate(20.702 0)">
      <g id="Group_1779" data-name="Group 1779" transform="translate(22.135)">
        <g id="Group_1778" data-name="Group 1778">
          <path id="Path_1732" data-name="Path 1732" d="M246.982,4.99A.982.982,0,0,1,246,4.007V.982a.982.982,0,1,1,1.965,0V4.007A.983.983,0,0,1,246.982,4.99Z" transform="translate(-246 0)" fill="#517491"/>
        </g>
      </g>
      <g id="Group_1784" data-name="Group 1784" transform="translate(7.216 6.179)">
        <g id="Group_1781" data-name="Group 1781" transform="translate(0 0)">
          <g id="Group_1780" data-name="Group 1780">
            <path id="Path_1733" data-name="Path 1733" d="M97.27,67a.979.979,0,0,1-.695-.288l-2.139-2.139a.983.983,0,0,1,1.39-1.39l2.139,2.139A.982.982,0,0,1,97.27,67Z" transform="translate(-94.148 -62.898)" fill="#517491"/>
          </g>
        </g>
        <g id="Group_1783" data-name="Group 1783" transform="translate(27.699)">
          <g id="Group_1782" data-name="Group 1782">
            <path id="Path_1734" data-name="Path 1734" d="M377.064,67a.983.983,0,0,1-.695-1.677l2.139-2.139a.983.983,0,0,1,1.39,1.39l-2.139,2.139A.98.98,0,0,1,377.064,67Z" transform="translate(-376.081 -62.897)" fill="#517491"/>
          </g>
        </g>
      </g>
      <g id="Group_1786" data-name="Group 1786" transform="translate(3.284 32.686)">
        <g id="Group_1785" data-name="Group 1785">
          <path id="Path_1735" data-name="Path 1735" d="M55.107,336.794a.983.983,0,0,1-.695-1.677l2.139-2.139a.983.983,0,0,1,1.39,1.389L55.8,336.506A.979.979,0,0,1,55.107,336.794Z" transform="translate(-54.124 -332.69)" fill="#517491"/>
        </g>
      </g>
      <g id="Group_1788" data-name="Group 1788" transform="translate(38.847 32.686)">
        <g id="Group_1787" data-name="Group 1787">
          <path id="Path_1736" data-name="Path 1736" d="M419.228,336.794a.979.979,0,0,1-.695-.288l-2.139-2.139a.983.983,0,1,1,1.389-1.389l2.139,2.139a.983.983,0,0,1-.695,1.677Z" transform="translate(-416.106 -332.69)" fill="#517491"/>
        </g>
      </g>
      <g id="Group_1791" data-name="Group 1791" transform="translate(0 21.099)">
        <g id="Group_1789" data-name="Group 1789" transform="translate(41.245)">
          <path id="Path_1737" data-name="Path 1737" d="M444.517,216.716h-3.025a.982.982,0,0,1,0-1.965h3.025a.982.982,0,0,1,0,1.965Z" transform="translate(-440.51 -214.751)" fill="#517491"/>
        </g>
        <g id="Group_1790" data-name="Group 1790">
          <path id="Path_1738" data-name="Path 1738" d="M24.709,216.716H21.684a.982.982,0,1,1,0-1.965h3.025a.982.982,0,1,1,0,1.965Z" transform="translate(-20.702 -214.751)" fill="#517491"/>
        </g>
      </g>
    </g>
    <g id="Group_1799" data-name="Group 1799" transform="translate(26.89 6.287)">
      <g id="Group_1795" data-name="Group 1795" transform="translate(30.241 23.046)">
        <g id="Group_1794" data-name="Group 1794">
          <g id="Group_1793" data-name="Group 1793">
            <path id="Path_1739" data-name="Path 1739" d="M392.467,300.533a.982.982,0,1,1,.545-1.8A.985.985,0,0,1,392.467,300.533Z" transform="translate(-391.488 -298.568)" fill="#517491"/>
          </g>
        </g>
      </g>
      <g id="Group_1798" data-name="Group 1798">
        <g id="Group_1797" data-name="Group 1797">
          <g id="Group_1796" data-name="Group 1796">
            <path id="Path_1740" data-name="Path 1740" d="M112.669,69.038A16.943,16.943,0,0,0,83.687,80.7a17.015,17.015,0,0,0,8.047,14.685,5.151,5.151,0,0,1,2.455,4.4v3.8a.983.983,0,0,0,.982.982h1.424v2.454a.983.983,0,0,0,.982.982h6.074a.983.983,0,0,0,.982-.982v-2.454h1.424a.983.983,0,0,0,.982-.982v-3.8a5.139,5.139,0,0,1,2.447-4.4,16.99,16.99,0,0,0,2.556-1.94A.982.982,0,1,0,110.713,92a15.006,15.006,0,0,1-2.26,1.715,7.119,7.119,0,0,0-2.386,2.424V82.557a4.482,4.482,0,0,0-.725-2.447l-3.9-6.01a.982.982,0,0,0-1.648,0l-3.9,6.01a4.483,4.483,0,0,0-.725,2.447V96.146a7.151,7.151,0,0,0-2.393-2.432,15.125,15.125,0,0,1-7.117-12.989,15.011,15.011,0,0,1,15.19-14.763,15.025,15.025,0,0,1,14.738,14.963,15.209,15.209,0,0,1-.145,2.1.982.982,0,1,0,1.946.272,17.163,17.163,0,0,0,.164-2.369,16.83,16.83,0,0,0-4.875-11.887ZM97.534,81.18l.756-1.164h4.648l.756,1.164a2.521,2.521,0,0,1,.406,1.291,4.266,4.266,0,0,0-.877-.091H98a4.265,4.265,0,0,0-.877.091,2.521,2.521,0,0,1,.406-1.291Zm5.135,24.865H98.56v-1.472h4.109Zm2.406-3.437H96.154v-1.838h8.922Z" transform="translate(-83.685 -63.995)" fill="#517491"/>
          </g>
        </g>
      </g>
    </g>
  </g>
</svg>
