<svg xmlns="http://www.w3.org/2000/svg" width="60.173" height="60.178" viewBox="0 0 60.173 60.178">
  <g id="Logo" transform="translate(-382.85 -222.708)">
    <g id="Group_1" data-name="Group 1" transform="translate(390.326 249.359)">
      <path id="Path_1" data-name="Path 1" d="M554.352,474.28h2.726l-1.358-3.529Z" transform="translate(-542.835 -469.933)" fill="#fff"/>
      <path id="Path_2" data-name="Path 2" d="M453.307,463.365h-2.953v6.812h2.953a2.764,2.764,0,0,0,2.282-.985,3.836,3.836,0,0,0,.695-2.412,3.92,3.92,0,0,0-.695-2.431A2.754,2.754,0,0,0,453.307,463.365Z" transform="translate(-450.354 -463.365)" fill="#fff"/>
    </g>
    <path id="Path_3" data-name="Path 3" d="M825.659,473.725l-1.137-2.953-1.368,3.527-.326.834A13.133,13.133,0,0,0,825.659,473.725Z" transform="translate(-391.254 -220.593)" fill="#fff"/>
    <path id="Path_4" data-name="Path 4" d="M412.935,222.708a30.089,30.089,0,1,0,30.088,30.09A30.089,30.089,0,0,0,412.935,222.708Zm-19.657,35.329h-4.928V247.493h4.928a4.671,4.671,0,0,1,3.655,1.5,6.123,6.123,0,0,1,0,7.533A4.675,4.675,0,0,1,393.279,258.037Zm12.981,0-.972-2.478H401.12l-.967,2.478h-2.085l4.059-10.545h2.154l4.063,10.545Zm10.922,0h-7.905V247.493h1.977v8.678h5.928Zm5.15,0a4.578,4.578,0,0,1-3.635-1.507,5.379,5.379,0,0,1-1.3-3.756v-5.281h1.977v5.281a3.8,3.8,0,0,0,.691,2.413,3.111,3.111,0,0,0,4.54,0,3.828,3.828,0,0,0,.7-2.413v-5.281h1.977v5.281a5.387,5.387,0,0,1-1.3,3.756A4.671,4.671,0,0,1,422.333,258.037Zm13.983,0-.973-2.478-.478-1.085a6.477,6.477,0,0,1-2.251,1.3,4.852,4.852,0,0,1-1.588.165l-.819,2.1h-2.082l.972-2.526a8.068,8.068,0,0,1-1.9-1.023,5.02,5.02,0,0,0,2.121.452l2.866-7.447h2.156l1.743,4.524c3.369-2.063,5.131-1.292,5.131-1.292a7.939,7.939,0,0,0-4.721,2.358l1.909,4.955Z" fill="#fff"/>
  </g>
</svg>
