<svg id="image" xmlns="http://www.w3.org/2000/svg" width="42.503" height="42.503" viewBox="0 0 42.503 42.503">
  <g id="Group_1801" data-name="Group 1801" transform="translate(0 0)">
    <g id="Group_1800" data-name="Group 1800">
      <path id="Path_1741" data-name="Path 1741" d="M37.071,0H5.431A5.437,5.437,0,0,0,0,5.431v31.64A5.437,5.437,0,0,0,5.431,42.5h31.64A5.437,5.437,0,0,0,42.5,37.071V5.431A5.437,5.437,0,0,0,37.071,0ZM40,37.071A2.931,2.931,0,0,1,37.071,40H5.431A2.931,2.931,0,0,1,2.5,37.071V32.505l8.239-7.011a.809.809,0,0,1,1.043-.006l5.161,4.286a1.252,1.252,0,0,0,1.685-.079L30.9,17.414a.81.81,0,0,1,1.2.062L40,27.2v9.868Zm0-13.839L34.042,15.9a3.314,3.314,0,0,0-4.917-.252L17.668,27.119l-4.283-3.556a3.308,3.308,0,0,0-4.265.026L2.5,29.218V5.431A2.931,2.931,0,0,1,5.431,2.5h31.64A2.931,2.931,0,0,1,40,5.431Z" transform="translate(0 0)" fill="#517491"/>
    </g>
  </g>
  <g id="Group_1803" data-name="Group 1803" transform="translate(7.343 5.229)">
    <g id="Group_1802" data-name="Group 1802">
      <path id="Path_1742" data-name="Path 1742" d="M94.5,62.995a6.036,6.036,0,1,0,6.036,6.036A6.043,6.043,0,0,0,94.5,62.995Z" transform="translate(-88.461 -62.995)" fill="#517491"/>
    </g>
  </g>
</svg>
