<svg id="price-tag" xmlns="http://www.w3.org/2000/svg" width="42.778" height="42.778" viewBox="0 0 42.778 42.778">
  <path id="Path_1743" data-name="Path 1743" d="M14.259,36.866a3.6,3.6,0,0,1-2.52-1.044L1.044,25.127a3.563,3.563,0,0,1,0-5.041L17.086,4.044A3.6,3.6,0,0,1,19.607,3H30.3a2.7,2.7,0,0,1,.661.08,3.533,3.533,0,0,1,2.9,3.485V17.259a3.6,3.6,0,0,1-1.044,2.52L16.78,35.821A3.6,3.6,0,0,1,14.259,36.866ZM19.607,4.782a1.8,1.8,0,0,0-1.26.522L2.3,21.346a1.781,1.781,0,0,0,0,2.52L13,34.561a1.839,1.839,0,0,0,2.519,0L31.559,18.519a1.793,1.793,0,0,0,.524-1.26V6.565a1.764,1.764,0,0,0-1.474-1.74,1.21,1.21,0,0,0-.308-.043Z" transform="translate(0 2.347)" fill="#517491"/>
  <path id="Path_1744" data-name="Path 1744" d="M30.482,40.427H14.69a3.757,3.757,0,0,1-2.6-1.036A3.548,3.548,0,0,1,11,36.863V30.838a.9.9,0,0,1,.26-.631L22.953,18.514a1.786,1.786,0,0,0,.524-1.258V6.562A1.764,1.764,0,0,0,22,4.822a.892.892,0,0,1-.027-1.757,3.662,3.662,0,0,1,3.208.968L33.077,11.6a3.551,3.551,0,0,1,1.094,2.533V36.863a3.548,3.548,0,0,1-1.091,2.529A3.757,3.757,0,0,1,30.482,40.427Z" transform="translate(8.607 2.35)" fill="#517491"/>
  <path id="Path_1745" data-name="Path 1745" d="M16.674,10.347a2.674,2.674,0,1,1,2.674-2.674A2.677,2.677,0,0,1,16.674,10.347Zm0-3.565a.891.891,0,1,0,.891.891A.892.892,0,0,0,16.674,6.782Z" transform="translate(10.954 3.912)" fill="#517491"/>
  <path id="Path_1746" data-name="Path 1746" d="M26.586,12.477a.892.892,0,0,1-.891-.891V6.238a4.456,4.456,0,1,0-8.912,0V9.8A.891.891,0,0,1,15,9.8V6.238a6.238,6.238,0,0,1,12.477,0v5.347A.892.892,0,0,1,26.586,12.477Z" transform="translate(11.736)" fill="#517491"/>
</svg>
