<svg id="time-left" xmlns="http://www.w3.org/2000/svg" width="15" height="15" viewBox="0 0 15 15">
  <g id="Layer_2_16_" transform="translate(0 0)">
    <g id="Group_1807" data-name="Group 1807">
      <path id="Path_1758" data-name="Path 1758" d="M253.683,423.176c-.145.036-.292.068-.439.1a.706.706,0,0,0,.257,1.388c.174-.032.35-.07.523-.114a.706.706,0,0,0-.341-1.37Z" transform="translate(-244.688 -409.679)" fill="#fd9804"/>
      <path id="Path_1759" data-name="Path 1759" d="M412.664,137.6a.706.706,0,0,0,1.34-.444c-.056-.169-.118-.338-.184-.5a.706.706,0,1,0-1.311.524C412.566,137.317,412.618,137.459,412.664,137.6Z" transform="translate(-399.45 -131.926)" fill="#fd9804"/>
      <path id="Path_1760" data-name="Path 1760" d="M321.6,394.028c-.125.082-.253.162-.383.236a.706.706,0,1,0,.706,1.223c.154-.089.307-.183.455-.281a.706.706,0,0,0-.778-1.178Z" transform="translate(-310.726 -381.538)" fill="#fd9804"/>
      <path id="Path_1761" data-name="Path 1761" d="M429.046,207.99a.706.706,0,1,0-1.411.055c.006.149.007.3,0,.449a.706.706,0,1,0,1.411.031C429.054,208.347,429.053,208.167,429.046,207.99Z" transform="translate(-414.052 -200.766)" fill="#fd9804"/>
      <path id="Path_1762" data-name="Path 1762" d="M378.193,344.21a.706.706,0,0,0-.988.141c-.09.119-.184.237-.281.351a.706.706,0,0,0,.08,1c.017.014.034.027.052.04a.706.706,0,0,0,.943-.12c.115-.136.228-.276.335-.419A.706.706,0,0,0,378.193,344.21Z" transform="translate(-365.095 -333.155)" fill="#fd9804"/>
      <path id="Path_1763" data-name="Path 1763" d="M414.83,279.384a.706.706,0,0,0-.885.462c-.045.142-.094.285-.147.425a.706.706,0,0,0,1.319.5c.063-.166.122-.336.175-.505A.706.706,0,0,0,414.83,279.384Z" transform="translate(-400.694 -270.51)" fill="#fd9804"/>
      <path id="Path_1764" data-name="Path 1764" d="M6.223,15.482a5.929,5.929,0,0,1-1.508-.5L4.7,14.978c-.113-.055-.225-.113-.334-.175h0a6.241,6.241,0,0,1-.585-.378A6.482,6.482,0,0,1,2.3,5.592,6.212,6.212,0,0,1,3.8,4.042l.021-.015a5.979,5.979,0,0,1,6.886-.057l-.459.686c-.128.191-.049.33.174.309L12.42,4.78a.339.339,0,0,0,.3-.444l-.536-1.994c-.06-.224-.213-.25-.341-.06l-.46.687A7.07,7.07,0,0,0,6.062,1.8q-.282.05-.557.123h0l-.021.006A7.24,7.24,0,0,0,1.462,4.714c-.008.01-.017.02-.025.032-.033.046-.066.094-.1.141-.053.078-.105.158-.155.237-.006.01-.011.019-.016.029A7.679,7.679,0,0,0,.008,9.57c0,.005,0,.01,0,.016.007.152.018.307.034.459,0,.01,0,.019,0,.029.016.153.037.306.063.459A7.583,7.583,0,0,0,2.155,14.6l.008.008,0,0a7.469,7.469,0,0,0,.936.809,7.123,7.123,0,0,0,2.914,1.26.589.589,0,0,0,.682-.491A.606.606,0,0,0,6.223,15.482Z" transform="translate(0 -1.688)" fill="#fd9804"/>
      <path id="Path_1765" data-name="Path 1765" d="M206.558,83.2a.571.571,0,0,0-.571.571v5.69l5.2,2.69a.571.571,0,0,0,.524-1.015l-4.587-2.371V83.769A.571.571,0,0,0,206.558,83.2Z" transform="translate(-199.939 -81.01)" fill="#fd9804"/>
    </g>
  </g>
</svg>
