<svg xmlns="http://www.w3.org/2000/svg" width="18" height="15" viewBox="0 0 18 15">
  <g id="wallet_icon" data-name="wallet icon" transform="translate(0 -44.308)" opacity="0.9">
    <g id="Group_1768" data-name="Group 1768" transform="translate(0 44.308)">
      <g id="Group_1767" data-name="Group 1767" transform="translate(0 0)">
        <path id="Path_1717" data-name="Path 1717" d="M15.4,44.308H2.6A2.609,2.609,0,0,0,0,46.924v9.767a2.609,2.609,0,0,0,2.6,2.616H15.4A2.609,2.609,0,0,0,18,56.692V46.924A2.609,2.609,0,0,0,15.4,44.308Zm1.558,9.07H13.154a1.57,1.57,0,0,1,0-3.14h3.808Zm0-4.186H13.154a2.616,2.616,0,0,0,0,5.233h3.808v2.267a1.566,1.566,0,0,1-1.558,1.57H2.6a1.566,1.566,0,0,1-1.558-1.57V46.924A1.566,1.566,0,0,1,2.6,45.354H15.4a1.566,1.566,0,0,1,1.558,1.57v2.267Z" transform="translate(0 -44.308)" fill="#fff"/>
      </g>
    </g>
    <g id="Group_1770" data-name="Group 1770" transform="translate(12.474 51.227)">
      <g id="Group_1769" data-name="Group 1769" transform="translate(0 0)">
        <path id="Path_1718" data-name="Path 1718" d="M360.741,241.231h-.775a.581.581,0,0,0,0,1.162h.775a.581.581,0,0,0,0-1.162Z" transform="translate(-359.385 -241.231)" fill="#fff"/>
      </g>
    </g>
  </g>
</svg>
